<?xml version="1.0" encoding="utf-8"?>
<!-- Generator: Adobe Illustrator 25.1.0, SVG Export Plug-In . SVG Version: 6.00 Build 0)  -->
<svg version="1.1" id="Layer_1" xmlns="http://www.w3.org/2000/svg" xmlns:xlink="http://www.w3.org/1999/xlink" x="0px" y="0px"
	 viewBox="0 0 300 60" style="enable-background:new 0 0 300 60;" xml:space="preserve">
<style type="text/css">
	.st0{fill:#00AE94;}
</style>
<g>
	<g>
		<path class="st0" d="M7.9,18.9h1.7v4.7h0.1c0.2-0.7,0.5-1.4,0.9-2c0.4-0.6,1-1.2,1.6-1.7c0.6-0.5,1.4-0.8,2.1-1.1
			c0.8-0.3,1.6-0.4,2.5-0.4c1.1,0,2,0.1,2.9,0.4c0.8,0.3,1.5,0.7,2,1.1c0.6,0.5,1,1,1.3,1.6c0.3,0.6,0.5,1.2,0.7,1.8h0.1
			c0.7-1.6,1.6-2.8,2.7-3.6c1.1-0.8,2.7-1.2,4.5-1.2c1,0,2,0.2,2.9,0.5c0.9,0.3,1.6,0.8,2.3,1.4c0.6,0.6,1.1,1.4,1.5,2.4
			c0.4,1,0.5,2.1,0.5,3.5v15.6h-1.7V26.1c0-1.5-0.2-2.6-0.7-3.4c-0.4-0.8-1-1.5-1.6-1.9c-0.6-0.4-1.2-0.7-1.8-0.8
			c-0.6-0.1-1.1-0.2-1.4-0.2c-1,0-2,0.2-2.9,0.5c-0.9,0.4-1.6,0.9-2.3,1.6c-0.6,0.7-1.1,1.6-1.5,2.7c-0.4,1.1-0.5,2.3-0.5,3.6v13.5
			h-1.7V26.1c0-1.4-0.2-2.6-0.6-3.4c-0.4-0.8-0.9-1.5-1.5-1.9c-0.6-0.4-1.2-0.7-1.8-0.8c-0.6-0.1-1.1-0.2-1.4-0.2
			c-0.8,0-1.6,0.2-2.5,0.5c-0.9,0.3-1.6,0.8-2.4,1.5c-0.7,0.7-1.3,1.6-1.7,2.6c-0.4,1.1-0.7,2.3-0.7,3.8v13.5H7.9V18.9z"/>
	</g>
	<g>
		<path class="st0" d="M39.6,18.9h2l8.5,20.9L58,18.9h1.9l-9.8,25.4c-0.5,1.1-0.9,2.1-1.3,2.9c-0.4,0.8-0.9,1.4-1.4,1.8
			c-0.6,0.5-1.3,0.8-2.1,0.9C44.5,50,43.4,50,42.1,50v-1.5c1.2,0,2.2-0.1,2.9-0.3c0.7-0.2,1.3-0.6,1.9-1.2c0.3-0.3,0.7-0.9,1-1.8
			c0.4-0.9,0.8-2.1,1.3-3.6L39.6,18.9z"/>
	</g>
	<g>
		<path class="st0" d="M67.8,41.8l-7.9-23h6.6l4.9,15.7h0.1l4.9-15.7h6.3l-7.8,23H67.8z"/>
	</g>
	<g>
		<path class="st0" d="M85.4,15.2V10h6.3v5.2H85.4z M91.8,18.8v23h-6.3v-23H91.8z"/>
	</g>
	<g>
		<path class="st0" d="M108.5,18.8V23h-4.6v11.4c0,1.1,0.2,1.8,0.5,2.1c0.4,0.4,1.1,0.5,2.1,0.5c0.4,0,0.7,0,1,0
			c0.3,0,0.6-0.1,0.9-0.1v4.9c-0.5,0.1-1.1,0.1-1.8,0.2c-0.7,0-1.3,0-1.9,0c-1,0-1.9-0.1-2.8-0.2c-0.9-0.1-1.6-0.4-2.3-0.8
			c-0.7-0.4-1.2-0.9-1.6-1.6c-0.4-0.7-0.6-1.6-0.6-2.8V23h-3.8v-4.2h3.8v-6.9h6.3v6.9H108.5z"/>
	</g>
	<g>
		<path class="st0" d="M111.3,25.9c0.1-1.5,0.5-2.7,1.1-3.7c0.7-1,1.5-1.8,2.5-2.4c1-0.6,2.1-1,3.4-1.3c1.3-0.3,2.5-0.4,3.8-0.4
			c1.2,0,2.3,0.1,3.5,0.2c1.2,0.2,2.3,0.5,3.3,1c1,0.5,1.8,1.1,2.4,2c0.6,0.8,0.9,2,0.9,3.4v12c0,1,0.1,2,0.2,3
			c0.1,1,0.3,1.7,0.6,2.1h-6.4c-0.1-0.4-0.2-0.7-0.3-1.1c-0.1-0.4-0.1-0.7-0.2-1.1c-1,1-2.2,1.8-3.6,2.2c-1.4,0.4-2.8,0.6-4.2,0.6
			c-1.1,0-2.1-0.1-3.1-0.4c-1-0.3-1.8-0.7-2.5-1.2c-0.7-0.6-1.3-1.3-1.7-2.1c-0.4-0.9-0.6-1.9-0.6-3.1c0-1.3,0.2-2.4,0.7-3.2
			c0.5-0.8,1.1-1.5,1.8-2c0.7-0.5,1.6-0.9,2.5-1.1c0.9-0.3,1.9-0.5,2.8-0.6c1-0.1,1.9-0.3,2.8-0.4c0.9-0.1,1.7-0.2,2.5-0.4
			c0.7-0.2,1.3-0.4,1.7-0.8c0.4-0.3,0.6-0.8,0.6-1.5c0-0.7-0.1-1.2-0.3-1.6c-0.2-0.4-0.5-0.7-0.9-0.9c-0.4-0.2-0.8-0.4-1.3-0.4
			c-0.5-0.1-1-0.1-1.6-0.1c-1.2,0-2.2,0.3-2.9,0.8c-0.7,0.5-1.1,1.4-1.2,2.7H111.3z M125.9,30.5c-0.3,0.2-0.6,0.4-1,0.6
			c-0.4,0.1-0.8,0.2-1.3,0.3c-0.5,0.1-0.9,0.2-1.4,0.2c-0.5,0.1-1,0.1-1.5,0.2c-0.5,0.1-0.9,0.2-1.4,0.4c-0.5,0.1-0.9,0.3-1.2,0.6
			c-0.3,0.3-0.6,0.6-0.8,1c-0.2,0.4-0.3,0.9-0.3,1.5c0,0.6,0.1,1,0.3,1.4c0.2,0.4,0.5,0.7,0.8,0.9c0.4,0.2,0.8,0.4,1.2,0.5
			c0.5,0.1,1,0.1,1.5,0.1c1.2,0,2.2-0.2,2.9-0.6c0.7-0.4,1.2-0.9,1.5-1.5c0.3-0.6,0.5-1.2,0.6-1.8c0.1-0.6,0.1-1.1,0.1-1.4V30.5z"/>
	</g>
	<g>
		<path class="st0" d="M143.3,18.8v3.1h0.1c0.8-1.2,1.8-2.1,3-2.8c1.2-0.7,2.5-1,4-1c1.5,0,2.8,0.3,4,0.8c1.2,0.6,2.1,1.6,2.7,3
			c0.7-1,1.6-1.9,2.8-2.7c1.2-0.8,2.6-1.2,4.2-1.2c1.2,0,2.3,0.1,3.4,0.4c1,0.3,1.9,0.8,2.7,1.4c0.7,0.7,1.3,1.5,1.7,2.6
			c0.4,1.1,0.6,2.3,0.6,3.8v15.4h-6.3V28.8c0-0.8,0-1.5-0.1-2.2c-0.1-0.7-0.2-1.3-0.5-1.8c-0.3-0.5-0.7-0.9-1.2-1.2
			c-0.5-0.3-1.2-0.4-2.1-0.4c-0.9,0-1.6,0.2-2.2,0.5c-0.6,0.3-1,0.8-1.3,1.3c-0.3,0.6-0.5,1.2-0.6,1.9c-0.1,0.7-0.2,1.4-0.2,2.1
			v12.8h-6.3V28.9c0-0.7,0-1.4,0-2c0-0.7-0.2-1.3-0.4-1.8c-0.2-0.6-0.6-1-1.1-1.4c-0.5-0.3-1.3-0.5-2.3-0.5c-0.3,0-0.7,0.1-1.2,0.2
			c-0.5,0.1-1,0.4-1.4,0.8c-0.5,0.4-0.9,0.9-1.2,1.6c-0.3,0.7-0.5,1.6-0.5,2.7v13.4h-6.3v-23H143.3z"/>
	</g>
	<g>
		<path class="st0" d="M176.8,15.2V10h6.3v5.2H176.8z M183.1,18.8v23h-6.3v-23H183.1z"/>
	</g>
	<g>
		<path class="st0" d="M194.1,18.8V22h0.1c0.8-1.3,1.8-2.3,3.1-2.9c1.3-0.6,2.6-0.9,3.9-0.9c1.7,0,3.1,0.2,4.2,0.7
			c1.1,0.5,1.9,1.1,2.6,1.9c0.6,0.8,1.1,1.8,1.3,3c0.3,1.2,0.4,2.5,0.4,3.9v14.2h-6.3v-13c0-1.9-0.3-3.3-0.9-4.3
			c-0.6-0.9-1.6-1.4-3.2-1.4c-1.7,0-3,0.5-3.7,1.5c-0.8,1-1.2,2.7-1.2,5.1v12.1h-6.3v-23H194.1z"/>
	</g>
	<g>
		<path class="st0" d="M212.7,34.2c0.1,1.1,0.3,2,0.7,2.8c0.4,0.8,1,1.5,1.6,2.1c0.7,0.6,1.4,1,2.3,1.3c0.9,0.3,1.9,0.4,2.9,0.4
			c0.7,0,1.5-0.1,2.4-0.2c0.8-0.1,1.6-0.4,2.4-0.7c0.7-0.4,1.3-0.9,1.8-1.5c0.5-0.6,0.7-1.4,0.7-2.4c0-1.3-0.4-2.2-1.2-2.9
			c-0.8-0.7-1.7-1.2-2.9-1.5c-1.2-0.4-2.4-0.6-3.8-0.9c-1.4-0.2-2.6-0.6-3.8-1c-1.2-0.4-2.1-1.1-2.9-1.9c-0.8-0.8-1.2-2-1.2-3.6
			c0-1.1,0.3-2.1,0.8-2.8c0.5-0.8,1.2-1.4,1.9-1.8c0.8-0.4,1.7-0.8,2.7-1c1-0.2,2-0.3,2.9-0.3c1.2,0,2.3,0.1,3.3,0.4
			c1,0.3,1.9,0.7,2.7,1.3c0.8,0.6,1.4,1.4,1.8,2.3c0.4,0.9,0.6,2,0.6,3.3h-1.7c0-1-0.2-1.9-0.5-2.7c-0.3-0.7-0.8-1.3-1.4-1.8
			c-0.6-0.5-1.3-0.8-2.2-1c-0.8-0.2-1.7-0.3-2.7-0.3c-0.8,0-1.6,0.1-2.3,0.2c-0.8,0.1-1.5,0.4-2.1,0.8c-0.6,0.4-1.1,0.8-1.5,1.4
			c-0.4,0.6-0.6,1.2-0.6,2c0,0.9,0.2,1.7,0.7,2.2c0.4,0.6,1,1,1.8,1.4c0.7,0.3,1.5,0.6,2.5,0.8c0.9,0.2,1.8,0.4,2.7,0.6
			c1.1,0.2,2.2,0.5,3.2,0.7c1,0.3,1.9,0.7,2.6,1.2c0.7,0.5,1.3,1.1,1.7,1.9c0.4,0.8,0.6,1.8,0.6,2.9c0,1.2-0.3,2.3-0.8,3.1
			c-0.6,0.8-1.3,1.4-2.1,1.9c-0.9,0.5-1.8,0.8-2.9,1c-1.1,0.2-2.1,0.3-3.1,0.3c-1.3,0-2.5-0.2-3.6-0.5c-1.1-0.3-2.1-0.9-2.9-1.6
			c-0.8-0.7-1.5-1.6-2-2.6c-0.5-1-0.7-2.2-0.8-3.5H212.7z"/>
	</g>
	<g>
		<path class="st0" d="M240,20.4h-5v16c0,0.9,0.1,1.6,0.3,2.2c0.2,0.5,0.5,0.9,1,1.2c0.4,0.3,1,0.5,1.6,0.5c0.6,0.1,1.3,0.1,2.1,0
			v1.5c-0.9,0.1-1.7,0.1-2.5,0c-0.8-0.1-1.5-0.3-2.2-0.7c-0.6-0.4-1.1-0.9-1.5-1.7c-0.4-0.7-0.5-1.8-0.5-3.1v-16h-4.2v-1.5h4.2v-7.1
			h1.7v7.1h5V20.4z"/>
	</g>
	<g>
		<path class="st0" d="M239.6,30.4c0-1.6,0.2-3.2,0.7-4.6c0.5-1.4,1.1-2.7,2-3.8c0.9-1.1,2-2,3.3-2.6c1.3-0.6,2.8-1,4.5-1
			c1.7,0,3.2,0.3,4.5,1c1.3,0.6,2.4,1.5,3.3,2.6c0.9,1.1,1.6,2.4,2,3.8c0.5,1.4,0.7,3,0.7,4.6c0,1.6-0.2,3.2-0.7,4.6
			c-0.5,1.5-1.1,2.7-2,3.8c-0.9,1.1-2,1.9-3.3,2.6c-1.3,0.6-2.8,1-4.5,1c-1.7,0-3.2-0.3-4.5-1c-1.3-0.6-2.4-1.5-3.3-2.6
			c-0.9-1.1-1.6-2.4-2-3.8C239.9,33.5,239.6,32,239.6,30.4z M241.3,30.4c0,1.4,0.2,2.7,0.6,3.9c0.4,1.3,1,2.4,1.7,3.4
			c0.7,1,1.7,1.8,2.8,2.3c1.1,0.6,2.4,0.9,3.8,0.9c1.4,0,2.7-0.3,3.8-0.9c1.1-0.6,2-1.4,2.8-2.3c0.7-1,1.3-2.1,1.7-3.4
			c0.4-1.3,0.6-2.6,0.6-3.9c0-1.4-0.2-2.7-0.6-3.9c-0.4-1.3-1-2.4-1.7-3.4c-0.7-1-1.7-1.8-2.8-2.3c-1.1-0.6-2.4-0.9-3.8-0.9
			c-1.4,0-2.7,0.3-3.8,0.9c-1.1,0.6-2,1.4-2.8,2.3c-0.7,1-1.3,2.1-1.7,3.4C241.5,27.7,241.3,29,241.3,30.4z"/>
	</g>
	<g>
		<path class="st0" d="M264.6,24h0.1c0.2-0.7,0.6-1.4,1.1-2.1c0.5-0.7,1.2-1.2,2-1.7c0.8-0.5,1.7-0.8,2.6-1.1c1-0.3,2-0.4,3-0.3v1.7
			c-0.9-0.1-1.9,0-3.1,0.3c-1.1,0.3-2.2,1-3.3,2c-0.4,0.4-0.8,0.9-1.1,1.3c-0.3,0.4-0.6,0.9-0.8,1.4c-0.2,0.5-0.4,1.1-0.5,1.7
			c-0.1,0.6-0.2,1.4-0.2,2.2v12.5h-1.7V18.9h1.7V24z"/>
	</g>
	<g>
		<path class="st0" d="M273.6,30.6v0.3c0,1.3,0.2,2.6,0.5,3.8c0.4,1.2,0.9,2.3,1.6,3.2c0.7,0.9,1.6,1.6,2.6,2.2
			c1.1,0.5,2.3,0.8,3.7,0.8c2.3,0,4.1-0.6,5.5-1.8c1.3-1.2,2.3-2.9,2.8-5h1.7c-0.5,2.7-1.6,4.7-3.3,6.1c-1.7,1.4-3.9,2.1-6.7,2.1
			c-1.7,0-3.2-0.3-4.4-0.9c-1.3-0.6-2.3-1.4-3.2-2.5c-0.8-1.1-1.5-2.3-1.9-3.7c-0.4-1.4-0.6-3-0.6-4.7c0-1.6,0.2-3.1,0.6-4.6
			c0.4-1.5,1.1-2.8,1.9-3.9c0.9-1.1,1.9-2,3.2-2.7c1.3-0.7,2.8-1,4.6-1c1.6,0,3,0.3,4.3,0.9c1.2,0.6,2.3,1.4,3.1,2.4
			c0.8,1,1.5,2.2,1.9,3.6c0.4,1.4,0.6,2.8,0.6,4.3c0,0.1,0,0.3,0,0.5c0,0.2,0,0.4,0,0.5H273.6z M290.4,29.1
			c-0.1-1.2-0.3-2.4-0.6-3.5c-0.4-1.1-0.9-2.1-1.6-2.9c-0.7-0.8-1.5-1.5-2.5-2c-1-0.5-2.1-0.8-3.4-0.8c-1.4,0-2.6,0.3-3.6,0.8
			c-1,0.5-1.9,1.2-2.6,2c-0.7,0.8-1.3,1.8-1.7,3c-0.4,1.1-0.6,2.3-0.7,3.5H290.4z"/>
	</g>
</g>
<g>
</g>
<g>
</g>
<g>
</g>
<g>
</g>
<g>
</g>
<g>
</g>
</svg>
